<?xml version="1.0" encoding="UTF-8" standalone="no"?><svg xmlns="http://www.w3.org/2000/svg" xmlns:xlink="http://www.w3.org/1999/xlink" contentScriptType="application/ecmascript" contentStyleType="text/css" height="403px" preserveAspectRatio="none" style="width:796px;height:403px;" version="1.1" viewBox="0 0 796 403" width="796px" zoomAndPan="magnify"><defs><filter height="300%" id="fi2i2yma9fhcq" width="300%" x="-1" y="-1"><feGaussianBlur result="blurOut" stdDeviation="2.0"/><feColorMatrix in="blurOut" result="blurOut2" type="matrix" values="0 0 0 0 0 0 0 0 0 0 0 0 0 0 0 0 0 0 .4 0"/><feOffset dx="4.0" dy="4.0" in="blurOut2" result="blurOut3"/><feBlend in="SourceGraphic" in2="blurOut3" mode="normal"/></filter></defs><g><!--MD5=[ed6624c6556d5e7b1bd23032162d20b7]
class Client--><rect fill="#FEFECE" filter="url(#fi2i2yma9fhcq)" height="60.8047" id="Client" style="stroke: #A80036; stroke-width: 1.5;" width="177" x="14" y="14.5"/><ellipse cx="80.75" cy="30.5" fill="#ADD1B2" rx="11" ry="11" style="stroke: #A80036; stroke-width: 1.0;"/><path d="M83.7188,36.1406 Q83.1406,36.4375 82.5,36.5781 Q81.8594,36.7344 81.1563,36.7344 Q78.6563,36.7344 77.3281,35.0938 Q76.0156,33.4375 76.0156,30.3125 Q76.0156,27.1875 77.3281,25.5313 Q78.6563,23.875 81.1563,23.875 Q81.8594,23.875 82.5,24.0313 Q83.1563,24.1875 83.7188,24.4844 L83.7188,27.2031 Q83.0938,26.625 82.5,26.3594 Q81.9063,26.0781 81.2813,26.0781 Q79.9375,26.0781 79.25,27.1563 Q78.5625,28.2188 78.5625,30.3125 Q78.5625,32.4063 79.25,33.4844 Q79.9375,34.5469 81.2813,34.5469 Q81.9063,34.5469 82.5,34.2813 Q83.0938,34 83.7188,33.4219 L83.7188,36.1406 Z "/><text fill="#000000" font-family="sans-serif" font-size="12" lengthAdjust="spacingAndGlyphs" textLength="35" x="101.25" y="34.6543">Client</text><line style="stroke: #A80036; stroke-width: 1.5;" x1="15" x2="190" y1="46.5" y2="46.5"/><line style="stroke: #A80036; stroke-width: 1.5;" x1="15" x2="190" y1="54.5" y2="54.5"/><ellipse cx="25" cy="65.5" fill="#84BE84" rx="3" ry="3" style="stroke: #038048; stroke-width: 1.0;"/><text fill="#000000" font-family="sans-serif" font-size="11" lengthAdjust="spacingAndGlyphs" textLength="151" x="34" y="68.7104">code(target: Target*): void</text><!--MD5=[fc07866a383d07d405a25512054a0e5c]
class Target--><rect fill="#FEFECE" filter="url(#fi2i2yma9fhcq)" height="73.6094" id="Target" style="stroke: #A80036; stroke-width: 1.5;" width="158" x="270.5" y="8"/><ellipse cx="324.75" cy="24" fill="#ADD1B2" rx="11" ry="11" style="stroke: #A80036; stroke-width: 1.0;"/><path d="M327.7188,29.6406 Q327.1406,29.9375 326.5,30.0781 Q325.8594,30.2344 325.1563,30.2344 Q322.6563,30.2344 321.3281,28.5938 Q320.0156,26.9375 320.0156,23.8125 Q320.0156,20.6875 321.3281,19.0313 Q322.6563,17.375 325.1563,17.375 Q325.8594,17.375 326.5,17.5313 Q327.1563,17.6875 327.7188,17.9844 L327.7188,20.7031 Q327.0938,20.125 326.5,19.8594 Q325.9063,19.5781 325.2813,19.5781 Q323.9375,19.5781 323.25,20.6563 Q322.5625,21.7188 322.5625,23.8125 Q322.5625,25.9063 323.25,26.9844 Q323.9375,28.0469 325.2813,28.0469 Q325.9063,28.0469 326.5,27.7813 Q327.0938,27.5 327.7188,26.9219 L327.7188,29.6406 Z "/><text fill="#000000" font-family="sans-serif" font-size="12" lengthAdjust="spacingAndGlyphs" textLength="41" x="345.25" y="28.1543">Target</text><line style="stroke: #A80036; stroke-width: 1.5;" x1="271.5" x2="427.5" y1="40" y2="40"/><line style="stroke: #A80036; stroke-width: 1.5;" x1="271.5" x2="427.5" y1="48" y2="48"/><ellipse cx="281.5" cy="59" fill="#84BE84" rx="3" ry="3" style="stroke: #038048; stroke-width: 1.0;"/><text fill="#000000" font-family="sans-serif" font-size="11" lengthAdjust="spacingAndGlyphs" textLength="93" x="290.5" y="62.2104">virtual ~Target()</text><ellipse cx="281.5" cy="71.8047" fill="#84BE84" rx="3" ry="3" style="stroke: #038048; stroke-width: 1.0;"/><text fill="#000000" font-family="sans-serif" font-size="11" lengthAdjust="spacingAndGlyphs" textLength="132" x="290.5" y="75.0151">virtual request(): string</text><!--MD5=[7393b79429f23cd61e6e6a493d3a2b14]
class Adaptee--><rect fill="#FEFECE" filter="url(#fi2i2yma9fhcq)" height="60.8047" id="Adaptee" style="stroke: #A80036; stroke-width: 1.5;" width="164" x="576.5" y="171.5"/><ellipse cx="627.75" cy="187.5" fill="#ADD1B2" rx="11" ry="11" style="stroke: #A80036; stroke-width: 1.0;"/><path d="M630.7188,193.1406 Q630.1406,193.4375 629.5,193.5781 Q628.8594,193.7344 628.1563,193.7344 Q625.6563,193.7344 624.3281,192.0938 Q623.0156,190.4375 623.0156,187.3125 Q623.0156,184.1875 624.3281,182.5313 Q625.6563,180.875 628.1563,180.875 Q628.8594,180.875 629.5,181.0313 Q630.1563,181.1875 630.7188,181.4844 L630.7188,184.2031 Q630.0938,183.625 629.5,183.3594 Q628.9063,183.0781 628.2813,183.0781 Q626.9375,183.0781 626.25,184.1563 Q625.5625,185.2188 625.5625,187.3125 Q625.5625,189.4063 626.25,190.4844 Q626.9375,191.5469 628.2813,191.5469 Q628.9063,191.5469 629.5,191.2813 Q630.0938,191 630.7188,190.4219 L630.7188,193.1406 Z "/><text fill="#000000" font-family="sans-serif" font-size="12" lengthAdjust="spacingAndGlyphs" textLength="53" x="648.25" y="191.6543">Adaptee</text><line style="stroke: #A80036; stroke-width: 1.5;" x1="577.5" x2="739.5" y1="203.5" y2="203.5"/><line style="stroke: #A80036; stroke-width: 1.5;" x1="577.5" x2="739.5" y1="211.5" y2="211.5"/><ellipse cx="587.5" cy="222.5" fill="#84BE84" rx="3" ry="3" style="stroke: #038048; stroke-width: 1.0;"/><text fill="#000000" font-family="sans-serif" font-size="11" lengthAdjust="spacingAndGlyphs" textLength="138" x="596.5" y="225.7104">specificRequest(): string</text><!--MD5=[f38a85e47f7d4f812523dd9b6d7d2c16]
class Adapter--><rect fill="#FEFECE" filter="url(#fi2i2yma9fhcq)" height="86.4141" id="Adapter" style="stroke: #A80036; stroke-width: 1.5;" width="221" x="239" y="159"/><ellipse cx="320.25" cy="175" fill="#ADD1B2" rx="11" ry="11" style="stroke: #A80036; stroke-width: 1.0;"/><path d="M323.2188,180.6406 Q322.6406,180.9375 322,181.0781 Q321.3594,181.2344 320.6563,181.2344 Q318.1563,181.2344 316.8281,179.5938 Q315.5156,177.9375 315.5156,174.8125 Q315.5156,171.6875 316.8281,170.0313 Q318.1563,168.375 320.6563,168.375 Q321.3594,168.375 322,168.5313 Q322.6563,168.6875 323.2188,168.9844 L323.2188,171.7031 Q322.5938,171.125 322,170.8594 Q321.4063,170.5781 320.7813,170.5781 Q319.4375,170.5781 318.75,171.6563 Q318.0625,172.7188 318.0625,174.8125 Q318.0625,176.9063 318.75,177.9844 Q319.4375,179.0469 320.7813,179.0469 Q321.4063,179.0469 322,178.7813 Q322.5938,178.5 323.2188,177.9219 L323.2188,180.6406 Z "/><text fill="#000000" font-family="sans-serif" font-size="12" lengthAdjust="spacingAndGlyphs" textLength="50" x="340.75" y="179.1543">Adapter</text><line style="stroke: #A80036; stroke-width: 1.5;" x1="240" x2="459" y1="191" y2="191"/><rect fill="none" height="6" style="stroke: #C82930; stroke-width: 1.0;" width="6" x="247" y="199"/><text fill="#000000" font-family="sans-serif" font-size="11" lengthAdjust="spacingAndGlyphs" textLength="195" x="259" y="205.2104">m_adaptee: unique_ptr&lt;Adaptee&gt;</text><line style="stroke: #A80036; stroke-width: 1.5;" x1="240" x2="459" y1="211.8047" y2="211.8047"/><ellipse cx="250" cy="222.8047" fill="#84BE84" rx="3" ry="3" style="stroke: #038048; stroke-width: 1.0;"/><text fill="#000000" font-family="sans-serif" font-size="11" lengthAdjust="spacingAndGlyphs" textLength="176" x="259" y="226.0151">Adapter(unique_ptr&lt;Adaptee&gt;)</text><ellipse cx="250" cy="235.6094" fill="#84BE84" rx="3" ry="3" style="stroke: #038048; stroke-width: 1.0;"/><text fill="#000000" font-family="sans-serif" font-size="11" lengthAdjust="spacingAndGlyphs" textLength="93" x="259" y="238.8198">request(): string</text><path d="M463.5,25 L463.5,41 L428.51,45 L463.5,49 L463.5,65.2656 A0,0 0 0 0 463.5,65.2656 L687.5,65.2656 A0,0 0 0 0 687.5,65.2656 L687.5,35 L677.5,25 L463.5,25 A0,0 0 0 0 463.5,25 " fill="#FBFB77" filter="url(#fi2i2yma9fhcq)" style="stroke: #A80036; stroke-width: 1.0;"/><path d="M677.5,25 L677.5,35 L687.5,35 L677.5,25 " fill="#FBFB77" style="stroke: #A80036; stroke-width: 1.0;"/><text fill="#000000" font-family="sans-serif" font-size="13" lengthAdjust="spacingAndGlyphs" textLength="199" x="469.5" y="42.0669">Target represents the interface</text><text fill="#000000" font-family="sans-serif" font-size="13" lengthAdjust="spacingAndGlyphs" textLength="151" x="469.5" y="57.1997">your code understands.</text><path d="M533,306 L533,391.6641 A0,0 0 0 0 533,391.6641 L784,391.6641 A0,0 0 0 0 784,391.6641 L784,316 L774,306 L662.5,306 L658.5,232.69 L654.5,306 L533,306 A0,0 0 0 0 533,306 " fill="#FBFB77" filter="url(#fi2i2yma9fhcq)" style="stroke: #A80036; stroke-width: 1.0;"/><path d="M774,306 L774,316 L784,316 L774,306 " fill="#FBFB77" style="stroke: #A80036; stroke-width: 1.0;"/><text fill="#000000" font-family="sans-serif" font-size="13" lengthAdjust="spacingAndGlyphs" textLength="226" x="539" y="323.0669">Adaptee has some useful behavior,</text><text fill="#000000" font-family="sans-serif" font-size="13" lengthAdjust="spacingAndGlyphs" textLength="200" x="539" y="338.1997">but its interface is incompatible</text><text fill="#000000" font-family="sans-serif" font-size="13" lengthAdjust="spacingAndGlyphs" textLength="180" x="539" y="353.3325">with the existing client code.</text><text fill="#000000" font-family="sans-serif" font-size="13" lengthAdjust="spacingAndGlyphs" textLength="209" x="539" y="368.4653">It needs some adaptation before</text><text fill="#000000" font-family="sans-serif" font-size="13" lengthAdjust="spacingAndGlyphs" textLength="164" x="539" y="383.5981">the client code can use it.</text><path d="M241.5,321.5 L241.5,376.8984 A0,0 0 0 0 241.5,376.8984 L457.5,376.8984 A0,0 0 0 0 457.5,376.8984 L457.5,331.5 L447.5,321.5 L353.5,321.5 L349.5,245.33 L345.5,321.5 L241.5,321.5 A0,0 0 0 0 241.5,321.5 " fill="#FBFB77" filter="url(#fi2i2yma9fhcq)" style="stroke: #A80036; stroke-width: 1.0;"/><path d="M447.5,321.5 L447.5,331.5 L457.5,331.5 L447.5,321.5 " fill="#FBFB77" style="stroke: #A80036; stroke-width: 1.0;"/><text fill="#000000" font-family="sans-serif" font-size="13" lengthAdjust="spacingAndGlyphs" textLength="191" x="247.5" y="338.5669">Adapter makes the Adaptee's</text><text fill="#000000" font-family="sans-serif" font-size="13" lengthAdjust="spacingAndGlyphs" textLength="185" x="247.5" y="353.6997">interface compatible with the</text><text fill="#000000" font-family="sans-serif" font-size="13" lengthAdjust="spacingAndGlyphs" textLength="115" x="247.5" y="368.8325">Target's interface.</text><path d="M6,166.5 L6,237.0313 A0,0 0 0 0 6,237.0313 L199,237.0313 A0,0 0 0 0 199,237.0313 L199,176.5 L189,166.5 L106.5,166.5 L102.5,75.52 L98.5,166.5 L6,166.5 A0,0 0 0 0 6,166.5 " fill="#FBFB77" filter="url(#fi2i2yma9fhcq)" style="stroke: #A80036; stroke-width: 1.0;"/><path d="M189,166.5 L189,176.5 L199,176.5 L189,166.5 " fill="#FBFB77" style="stroke: #A80036; stroke-width: 1.0;"/><text fill="#000000" font-family="sans-serif" font-size="13" lengthAdjust="spacingAndGlyphs" textLength="172" x="12" y="183.5669">Client represents the client</text><text fill="#000000" font-family="sans-serif" font-size="13" lengthAdjust="spacingAndGlyphs" textLength="165" x="12" y="198.6997">that interacts with objects</text><text fill="#000000" font-family="sans-serif" font-size="13" lengthAdjust="spacingAndGlyphs" textLength="118" x="12" y="213.8325">of the Target class</text><text fill="#000000" font-family="sans-serif" font-size="13" lengthAdjust="spacingAndGlyphs" textLength="120" x="12" y="228.9653">(or its subclasses).</text><!--MD5=[431c3f1848dccc83292155c400886313]
link Client to Target--><path d="M191.32,45 C217.19,45 245.26,45 270.47,45 " fill="none" id="Client-Target" style="stroke: #A80036; stroke-width: 1.0;"/><text fill="#000000" font-family="sans-serif" font-size="13" lengthAdjust="spacingAndGlyphs" textLength="30" x="209.25" y="38.0669">uses</text><polygon fill="#000000" points="242.25,32.0664,248.25,35.0664,242.25,38.0664,242.25,32.0664" style="stroke: #000000; stroke-width: 1.0;"/><!--MD5=[e8afce381d6978114aa9e217ec9a4ba2]
reverse link Target to Adapter--><path d="M349.5,102.39 C349.5,121.04 349.5,141.46 349.5,158.85 " fill="none" id="Target&lt;-Adapter" style="stroke: #A80036; stroke-width: 1.0; stroke-dasharray: 7.0,7.0;"/><polygon fill="none" points="342.5,102.34,349.5,82.34,356.5,102.34,342.5,102.34" style="stroke: #A80036; stroke-width: 1.0;"/><text fill="#000000" font-family="sans-serif" font-size="13" lengthAdjust="spacingAndGlyphs" textLength="71" x="350.5" y="125.0669">Inheritance</text><!--MD5=[1f7b3f53da8b73da2122c346b70f89b1]
reverse link Adapter to Adaptee--><path d="M473.32,202 C507.93,202 544.67,202 576.22,202 " fill="none" id="Adapter&lt;-Adaptee" style="stroke: #A80036; stroke-width: 1.0;"/><polygon fill="#FFFFFF" points="460.18,202,466.18,206,472.18,202,466.18,198,460.18,202" style="stroke: #A80036; stroke-width: 1.0;"/><text fill="#000000" font-family="sans-serif" font-size="13" lengthAdjust="spacingAndGlyphs" textLength="80" x="478.25" y="195.0669">Composition</text><!--MD5=[628f87f63460703f8c72ca6a99c9dd0d]
@startuml adapterDiagram

class Client {
  +code(target: Target*): void
}

class Target {
  +virtual ~Target()
  +virtual request(): string
}

class Adaptee {
  +specificRequest(): string
}

class Adapter {
  -m_adaptee: unique_ptr<Adaptee>
  +Adapter(unique_ptr<Adaptee>)
  +request(): string
}

Client -r- Target : uses >
Target <|.d. Adapter : Inheritance
Adapter o-r- Adaptee : Composition

note right of Target
  Target represents the interface 
  your code understands.
end note

note bottom of Adaptee
  Adaptee has some useful behavior, 
  but its interface is incompatible 
  with the existing client code. 
  It needs some adaptation before 
  the client code can use it.
end note

note bottom of Adapter
  Adapter makes the Adaptee's 
  interface compatible with the 
  Target's interface.
end note

note bottom of Client
  Client represents the client
  that interacts with objects
  of the Target class
  (or its subclasses).
end note

@enduml

PlantUML version 1.2020.02(Sun Mar 01 07:22:07 BRT 2020)
(GPL source distribution)
Java Runtime: OpenJDK Runtime Environment
JVM: OpenJDK 64-Bit Server VM
Java Version: 11.0.20+8-post-Ubuntu-1ubuntu122.04
Operating System: Linux
Default Encoding: UTF-8
Language: en
Country: US
--></g></svg>